<?xml version="1.0" encoding="UTF-8"?>
<svg xmlns="http://www.w3.org/2000/svg" xmlns:xlink="http://www.w3.org/1999/xlink" x="0px" y="0px" viewBox="0 0 512 512" style="enable-background:new 0 0 512 512;" xml:space="preserve" width="512" height="512">
<g>
	<path style="fill-rule:evenodd;clip-rule:evenodd;" d="M510.66,230.623L404.268,46.346c-2.761-4.783-8.878-6.422-13.66-3.66   l-69.956,40.388c-0.003,0.002-0.006,0.003-0.009,0.005l-66.957,38.658l-74.117,42.792c-2.297,1.326-3.973,3.51-4.659,6.072   c-0.686,2.562-0.327,5.292,0.999,7.588l33.193,57.493c2.761,4.782,8.876,6.42,13.66,3.66c4.783-2.761,6.421-8.877,3.66-13.66   l-28.193-48.833l52.644-30.394l21.487,37.218c1.326,2.297,3.51,3.973,6.072,4.659c0.852,0.228,1.722,0.341,2.588,0.341   c1.74,0,3.466-0.454,5-1.34l71.111-41.056c2.297-1.326,3.973-3.51,4.659-6.072c0.687-2.562,0.327-5.292-0.999-7.588L339.303,95.4   l52.644-30.394l96.393,166.956L294.62,343.806l-28.192-48.833c-2.761-4.783-8.877-6.423-13.66-3.66   c-4.783,2.761-6.421,8.877-3.66,13.66l33.192,57.493c1.326,2.297,3.51,3.973,6.072,4.66c0.852,0.228,1.722,0.341,2.588,0.341   c1.741,0,3.467-0.455,5-1.34L507,244.283c2.297-1.326,3.973-3.51,4.659-6.072C512.346,235.649,511.986,232.92,510.66,230.623z    M338.471,133.958l-53.791,31.056l-16.487-28.558l53.79-31.056L338.471,133.958z"></path>
	<path style="fill-rule:evenodd;clip-rule:evenodd;" d="M478.578,295.711L305.006,395.922c-8.313-8.886-20.064-14.149-32.499-14.149   c-4.396,0-8.757,0.684-12.945,1.965l-143.62-248.758c-1.786-3.094-5.087-5-8.66-5H10c-5.523,0-10,4.477-10,10   c0,5.523,4.477,10,10,10h91.509l140.727,243.747c-14.785,13.791-18.71,36.465-8.179,54.705   c7.915,13.708,22.673,22.224,38.515,22.224c7.762,0,15.434-2.061,22.185-5.96c10.28-5.934,17.632-15.517,20.704-26.981   c2.19-8.172,2.005-16.6-0.424-24.49l173.54-100.193c4.783-2.762,6.421-8.878,3.66-13.66   C489.478,294.589,483.361,292.948,478.578,295.711z M296.143,432.539c-1.689,6.304-5.732,11.574-11.385,14.837   c-3.716,2.146-7.93,3.28-12.186,3.28c-8.72,0-16.841-4.684-21.195-12.224c-6.736-11.668-2.725-26.641,8.942-33.379   c0.001,0,0.002-0.001,0.003-0.001c0.001,0,0.002-0.001,0.002-0.001c3.715-2.145,7.929-3.278,12.184-3.278   c8.72,0,16.841,4.684,21.194,12.224C296.965,419.649,297.832,426.234,296.143,432.539z"></path>
	<path style="fill-rule:evenodd;clip-rule:evenodd;" d="M336.654,285.019c1.696,0,3.416-0.432,4.991-1.341l103.225-59.598   c4.783-2.761,6.421-8.878,3.66-13.66c-2.762-4.784-8.877-6.422-13.66-3.66l-103.225,59.598c-4.783,2.762-6.421,8.878-3.66,13.66   C329.837,283.227,333.198,285.019,336.654,285.019z"></path>
	<path style="fill-rule:evenodd;clip-rule:evenodd;" d="M247.765,265.328c0-5.508-4.492-10-10-10c-5.508,0-10,4.492-10,10   c0,5.508,4.492,10,10,10C243.273,275.328,247.765,270.836,247.765,265.328z"></path>
</g>















</svg>